<svg width="505" height="505" viewBox="0 0 505 505" fill="none" xmlns="http://www.w3.org/2000/svg">
<path fill-rule="evenodd" clip-rule="evenodd" d="M466.967 385.832C491.074 347.138 505 301.445 505 252.5C505 228.397 501.905 206.189 495.316 183.004C480.818 152.939 458.191 106.017 458.191 106.017C412.407 41.8424 337.34 0 252.5 0C183.261 0 120.532 27.8683 74.9162 73L40.4323 115.392C14.8529 154.874 0 201.953 0 252.5C0 261.329 0.45314 270.052 1.33743 278.647L31.671 375.032C74.7757 452.55 157.513 505 252.5 505C307.555 505 358.495 487.38 399.988 457.471C405 452.5 464.952 388 466.967 385.832ZM466.967 385.832C468.905 379.566 470.556 372.812 472.329 365.236C474.887 354.305 474.856 336.602 474.856 336.602C474.856 336.602 471.293 309.795 463.907 294.493C449.286 264.205 408.156 247.646 384.908 238.287C377.511 235.309 371.925 233.06 369.578 231.329C362.994 226.475 357.909 220.971 358.177 213.753C359.486 178.407 422.259 155.741 449.894 176.115C459.684 183.334 464.321 201.894 464.321 201.894C464.321 201.894 483.211 190.381 495.316 183.004C482.294 156 470.48 131.5 458.191 106.017C448.47 103.649 436.563 102.388 421.554 102.388C387.732 102.388 373.359 103.613 348 118.5C334.082 126.671 328.086 131.848 316.44 145.181C298.51 165.71 289.667 181.875 290.677 209.112C291.644 235.179 294.076 250.626 311.464 270.07C324.235 284.35 351.891 297.861 351.891 297.861C351.891 297.861 401.287 313.927 404.109 339.97C405.186 349.915 405.328 356.835 399.898 365.236C396.165 371.01 395.363 371.625 392.568 373.767C391.209 374.807 389.38 376.208 386.516 378.737C375.106 388.812 353.782 389.686 336.536 390.08C318.727 390.487 306.059 387.559 291.192 380.8C269.487 370.93 256.367 361.683 243.742 352.784L243.738 352.782C242.035 351.581 240.341 350.387 238.635 349.199V223.549L281.918 223.033V215.299H238.635V171.991H230.391V215.299H186.594V223.033L230.391 223.549V343.604C220.567 337.167 209.469 330.87 193.808 324.602C162.892 312.228 146.926 307.117 128.369 306.041C92.8159 303.979 57.2627 311.197 57.2627 311.197L70.1443 249.327H178.865V186.943H85.6022L98.9991 134.869H222.662V73H74.9162C63 87.6488 52 101.171 40.4323 115.392L5.73635 263.332L1.33743 278.647C12.9355 315.5 22.3769 345.5 31.671 375.032L34.5911 373.582C34.5911 373.582 80.4646 360.193 112.396 360.183C132.631 360.176 147.073 362.761 166.499 368.426C190.678 375.477 203.394 387.142 217.179 399.789C227.271 409.047 237.937 418.832 254.093 427.717C280.02 441.975 315.41 454.012 315.41 454.012C356.439 462.009 381.213 463.115 399.988 457.471C404.274 453.22 464.5 388.5 466.967 385.832Z" fill="white"/>
</svg>
